<svg width="36" height="36" viewBox="0 0 36 36" fill="none" xmlns="http://www.w3.org/2000/svg">
<mask id="mask0_305_1702" style="mask-type:luminance" maskUnits="userSpaceOnUse" x="0" y="0" width="36" height="36">
<path d="M36 0H0V36H36V0Z" fill="white"/>
</mask>
<g mask="url(#mask0_305_1702)">
<path opacity="0.4" d="M23.22 4.5H11.28C6.105 4.5 3 7.59 3 12.78V24.705C3 29.91 6.105 33 11.28 33H23.205C28.395 33 31.485 29.91 31.485 24.72V12.78C31.5 7.59 28.395 4.5 23.22 4.5Z" fill="#0086F3"/>
<path d="M31.53 4.47041C28.845 1.77041 26.22 1.71041 23.46 4.47041L21.765 6.15041C21.615 6.30041 21.57 6.51041 21.63 6.70541C22.68 10.3804 25.62 13.3204 29.295 14.3704C29.34 14.3854 29.415 14.3854 29.46 14.3854C29.61 14.3854 29.76 14.3254 29.865 14.2204L31.53 12.5404C32.895 11.1754 33.57 9.87041 33.57 8.53541C33.57 7.18541 32.895 5.85041 31.53 4.47041Z" fill="#0086F3"/>
<path d="M26.7902 15.6297C26.3852 15.4347 25.9952 15.2397 25.6351 15.0147C25.3351 14.8348 25.0351 14.6398 24.7501 14.4298C24.5101 14.2798 24.2402 14.0548 23.9702 13.8298C23.9402 13.8148 23.8502 13.7398 23.7302 13.6198C23.2652 13.2448 22.7702 12.7348 22.3052 12.1798C22.2752 12.1498 22.1852 12.0598 22.1102 11.9248C21.9602 11.7598 21.7352 11.4748 21.5402 11.1598C21.3752 10.9498 21.1802 10.6498 21.0002 10.3348C20.7752 9.95977 20.5802 9.58477 20.4002 9.19477C20.2052 8.77477 20.0552 8.38477 19.9202 8.00977L11.8502 16.0797C11.3252 16.6047 10.8152 17.5947 10.7102 18.3297L10.0652 22.7997C9.93015 23.7447 10.1852 24.6297 10.7702 25.2147C11.2652 25.7097 11.9402 25.9647 12.6902 25.9647C12.8552 25.9647 13.0202 25.9497 13.1852 25.9347L17.6402 25.3047C18.3752 25.1997 19.3652 24.7047 19.8902 24.1647L27.9602 16.0947C27.5852 15.9747 27.2102 15.8097 26.7902 15.6297Z" fill="#0086F3"/>
</g>
</svg>
