<svg width="24" height="24" viewBox="0 0 24 24" fill="none" xmlns="http://www.w3.org/2000/svg">
<path fill-rule="evenodd" clip-rule="evenodd" d="M4.25 19C4.25 18.8011 4.32902 18.6103 4.46967 18.4697C4.61032 18.329 4.80109 18.25 5 18.25H19C19.1989 18.25 19.3897 18.329 19.5303 18.4697C19.671 18.6103 19.75 18.8011 19.75 19C19.75 19.1989 19.671 19.3897 19.5303 19.5303C19.3897 19.671 19.1989 19.75 19 19.75H5C4.80109 19.75 4.61032 19.671 4.46967 19.5303C4.32902 19.3897 4.25 19.1989 4.25 19ZM7.25 22C7.25 21.8011 7.32902 21.6103 7.46967 21.4697C7.61032 21.329 7.80109 21.25 8 21.25H16C16.1989 21.25 16.3897 21.329 16.5303 21.4697C16.671 21.6103 16.75 21.8011 16.75 22C16.75 22.1989 16.671 22.3897 16.5303 22.5303C16.3897 22.671 16.1989 22.75 16 22.75H8C7.80109 22.75 7.61032 22.671 7.46967 22.5303C7.32902 22.3897 7.25 22.1989 7.25 22ZM12 1.25C12.1989 1.25 12.3897 1.32902 12.5303 1.46967C12.671 1.61032 12.75 1.80109 12.75 2V3C12.75 3.19891 12.671 3.38968 12.5303 3.53033C12.3897 3.67098 12.1989 3.75 12 3.75C11.8011 3.75 11.6103 3.67098 11.4697 3.53033C11.329 3.38968 11.25 3.19891 11.25 3V2C11.25 1.80109 11.329 1.61032 11.4697 1.46967C11.6103 1.32902 11.8011 1.25 12 1.25ZM4.399 4.399C4.53963 4.25855 4.73025 4.17966 4.929 4.17966C5.12775 4.17966 5.31837 4.25855 5.459 4.399L5.852 4.791C5.98869 4.93239 6.06437 5.1218 6.06276 5.31845C6.06114 5.5151 5.98235 5.70325 5.84336 5.84237C5.70437 5.98149 5.5163 6.06046 5.31965 6.06226C5.123 6.06406 4.93352 5.98855 4.792 5.852L4.399 5.459C4.25855 5.31837 4.17966 5.12775 4.17966 4.929C4.17966 4.73025 4.25855 4.53963 4.399 4.399ZM19.601 4.399C19.7414 4.53963 19.8203 4.73025 19.8203 4.929C19.8203 5.12775 19.7414 5.31837 19.601 5.459L19.208 5.852C19.0658 5.98448 18.8778 6.0566 18.6835 6.05317C18.4892 6.04975 18.3038 5.97104 18.1664 5.83362C18.029 5.69621 17.9503 5.51082 17.9468 5.31652C17.9434 5.12222 18.0155 4.93417 18.148 4.792L18.541 4.399C18.6816 4.25855 18.8722 4.17966 19.071 4.17966C19.2698 4.17966 19.4604 4.25855 19.601 4.399ZM1.25 12C1.25 11.8011 1.32902 11.6103 1.46967 11.4697C1.61032 11.329 1.80109 11.25 2 11.25H3C3.19891 11.25 3.38968 11.329 3.53033 11.4697C3.67098 11.6103 3.75 11.8011 3.75 12C3.75 12.1989 3.67098 12.3897 3.53033 12.5303C3.38968 12.671 3.19891 12.75 3 12.75H2C1.80109 12.75 1.61032 12.671 1.46967 12.5303C1.32902 12.3897 1.25 12.1989 1.25 12ZM20.25 12C20.25 11.8011 20.329 11.6103 20.4697 11.4697C20.6103 11.329 20.8011 11.25 21 11.25H22C22.1989 11.25 22.3897 11.329 22.5303 11.4697C22.671 11.6103 22.75 11.8011 22.75 12C22.75 12.1989 22.671 12.3897 22.5303 12.5303C22.3897 12.671 22.1989 12.75 22 12.75H21C20.8011 12.75 20.6103 12.671 20.4697 12.5303C20.329 12.3897 20.25 12.1989 20.25 12Z" fill="#FF8800"/>
<path d="M5.25 12.0003C5.25 13.1783 5.552 14.2863 6.083 15.2503H2C1.80109 15.2503 1.61032 15.3293 1.46967 15.4699C1.32902 15.6106 1.25 15.8014 1.25 16.0003C1.25 16.1992 1.32902 16.39 1.46967 16.5306C1.61032 16.6713 1.80109 16.7503 2 16.7503H11.25V11.8103L10.53 12.5303C10.4613 12.604 10.3785 12.6631 10.2865 12.7041C10.1945 12.745 10.0952 12.7671 9.99452 12.7689C9.89382 12.7706 9.79379 12.7521 9.7004 12.7144C9.60701 12.6767 9.52218 12.6205 9.45096 12.5493C9.37974 12.4781 9.3236 12.3933 9.28588 12.2999C9.24816 12.2065 9.22963 12.1065 9.23141 12.0058C9.23318 11.9051 9.25523 11.8057 9.29622 11.7137C9.33721 11.6217 9.39631 11.5389 9.47 11.4703L11.47 9.47028C11.6106 9.32983 11.8012 9.25094 12 9.25094C12.1988 9.25094 12.3894 9.32983 12.53 9.47028L14.53 11.4703C14.6037 11.5389 14.6628 11.6217 14.7038 11.7137C14.7448 11.8057 14.7668 11.9051 14.7686 12.0058C14.7704 12.1065 14.7518 12.2065 14.7141 12.2999C14.6764 12.3933 14.6203 12.4781 14.549 12.5493C14.4778 12.6205 14.393 12.6767 14.2996 12.7144C14.2062 12.7521 14.1062 12.7706 14.0055 12.7689C13.9048 12.7671 13.8055 12.745 13.7135 12.7041C13.6215 12.6631 13.5387 12.604 13.47 12.5303L12.75 11.8103V16.7503H22C22.1989 16.7503 22.3897 16.6713 22.5303 16.5306C22.671 16.39 22.75 16.1992 22.75 16.0003C22.75 15.8014 22.671 15.6106 22.5303 15.4699C22.3897 15.3293 22.1989 15.2503 22 15.2503H17.917C18.4123 14.3481 18.6947 13.3447 18.7427 12.3166C18.7906 11.2886 18.6029 10.2632 18.1938 9.31883C17.7847 8.37447 17.1651 7.53616 16.3823 6.86799C15.5996 6.19983 14.6744 5.7195 13.6775 5.46373C12.6807 5.20796 11.6385 5.18352 10.6307 5.39229C9.62298 5.60106 8.6763 6.0375 7.86308 6.66825C7.04986 7.299 6.39164 8.10735 5.93874 9.0315C5.48584 9.95564 5.25026 10.9711 5.25 12.0003Z" fill="#FF8800"/>
</svg>
