<svg width="20" height="20" viewBox="0 0 20 20" fill="none" xmlns="http://www.w3.org/2000/svg">
<g clip-path="url(#clip0_305_2991)">
<mask id="mask0_305_2991" style="mask-type:luminance" maskUnits="userSpaceOnUse" x="0" y="0" width="20" height="20">
<path d="M20 0H0V20H20V0Z" fill="white"/>
</mask>
<g mask="url(#mask0_305_2991)">
<path opacity="0.4" d="M13.4916 1.66699H6.50829C3.47496 1.66699 1.66663 3.47533 1.66663 6.50866V13.4837C1.66663 16.5253 3.47496 18.3337 6.50829 18.3337H13.4833C16.5166 18.3337 18.325 16.5253 18.325 13.492V6.50866C18.3333 3.47533 16.525 1.66699 13.4916 1.66699Z" fill="#0086F3"/>
<path d="M8.81654 12.9837C8.64988 12.9837 8.49154 12.917 8.37488 12.8003L6.01658 10.442C5.77491 10.2003 5.77491 9.80032 6.01658 9.55865C6.25824 9.31698 6.65824 9.31698 6.89991 9.55865L8.81654 11.4753L13.0999 7.19199C13.3415 6.95033 13.7415 6.95033 13.9832 7.19199C14.2249 7.43366 14.2249 7.83366 13.9832 8.07533L9.25821 12.8003C9.14154 12.917 8.98321 12.9837 8.81654 12.9837Z" fill="#0086F3"/>
</g>
</g>
<defs>
<clipPath id="clip0_305_2991">
<rect width="20" height="20" fill="white"/>
</clipPath>
</defs>
</svg>
