<svg width="20" height="20" viewBox="0 0 20 20" fill="none" xmlns="http://www.w3.org/2000/svg">
<path opacity="0.4" d="M6.50842 18.083H13.4918C14.9586 18.083 16.099 17.6466 16.8717 16.873C17.6443 16.0994 18.0788 14.9589 18.0748 13.4922V6.50781C18.0748 5.04096 17.6386 3.89975 16.8649 3.12598C16.0911 2.35231 14.9498 1.91602 13.483 1.91602H6.50842C5.04153 1.91602 3.90037 2.35226 3.12659 3.12695C2.35277 3.90174 1.91663 5.04531 1.91663 6.5166V13.4912C1.91663 14.9582 2.35277 16.0992 3.12659 16.873C3.9004 17.6469 5.04147 18.083 6.50842 18.083Z" fill="#787880" fill-opacity="0.16" stroke="#818181" stroke-width="0.5"/>
<path d="M12.9417 8.15809C12.7833 8.15809 12.625 8.21642 12.5 8.34142L10 10.8414L7.50001 8.34142C7.25834 8.09976 6.85834 8.09976 6.61667 8.34142C6.37501 8.58309 6.37501 8.98309 6.61667 9.22476L9.55834 12.1664C9.80001 12.4081 10.2 12.4081 10.4417 12.1664L13.3833 9.22476C13.625 8.98309 13.625 8.58309 13.3833 8.34142C13.2583 8.21642 13.1 8.15809 12.9417 8.15809Z" fill="#0D0C0C"/>
</svg>
