<svg width="40" height="40" viewBox="0 0 40 40" fill="none" xmlns="http://www.w3.org/2000/svg">
<rect width="40" height="40" rx="20" fill="#0086F3"/>
<mask id="mask0_123_310" style="mask-type:luminance" maskUnits="userSpaceOnUse" x="4" y="4" width="32" height="32">
<path d="M36 4H4V36H36V4Z" fill="white"/>
</mask>
<g mask="url(#mask0_123_310)">
<path d="M31.2003 25.7744C30.827 26.7744 30.0403 27.5344 29.0136 27.8811C27.5736 28.3611 26.0936 28.7211 24.6003 28.9744C24.4536 29.0011 24.307 29.0277 24.1603 29.0411C23.9203 29.0811 23.6803 29.1077 23.4403 29.1344C23.147 29.1744 22.8403 29.2011 22.5336 29.2277C21.6936 29.2944 20.867 29.3344 20.027 29.3344C19.1736 29.3344 18.3203 29.2944 17.4803 29.2144C17.1203 29.1877 16.7736 29.1477 16.427 29.0944C16.227 29.0677 16.027 29.0411 15.8403 29.0144C15.6936 28.9877 15.547 28.9744 15.4003 28.9477C13.9203 28.7077 12.4536 28.3477 11.027 27.8677C9.96031 27.5077 9.14698 26.7477 8.78698 25.7744C8.42698 24.8144 8.56031 23.6944 9.13364 22.7344L10.6403 20.2277C10.9603 19.6811 11.2536 18.6277 11.2536 17.9877V15.5077C11.2536 10.6677 15.187 6.73438 20.027 6.73438C24.8536 6.73438 28.787 10.6677 28.787 15.5077V17.9877C28.787 18.6277 29.0803 19.6811 29.4136 20.2277L30.9203 22.7344C31.467 23.6677 31.5736 24.7611 31.2003 25.7744Z" fill="#FFFDFC"/>
<path d="M23.7736 30.68C23.2136 32.2267 21.7336 33.3334 20.0003 33.3334C18.9469 33.3334 17.9069 32.9067 17.1736 32.1467C16.7469 31.7467 16.4269 31.2134 16.2402 30.6667C16.4136 30.6934 16.5869 30.7067 16.7736 30.7334C17.0802 30.7734 17.4003 30.8134 17.7203 30.84C18.4803 30.9067 19.2536 30.9467 20.0269 30.9467C20.7869 30.9467 21.5469 30.9067 22.2936 30.84C22.5736 30.8134 22.8536 30.8 23.1203 30.76C23.3336 30.7334 23.5469 30.7067 23.7736 30.68Z" fill="#FFFDFC"/>
<path d="M20.0004 18.3475C19.4404 18.3475 18.9871 17.8941 18.9871 17.3341V13.2008C18.9871 12.6408 19.4404 12.1875 20.0004 12.1875C20.5604 12.1875 21.0137 12.6408 21.0137 13.2008V17.3341C21.0004 17.8941 20.5471 18.3475 20.0004 18.3475Z" fill="#0D0C0C"/>
</g>
</svg>
