<svg width="20" height="20" viewBox="0 0 20 20" fill="none" xmlns="http://www.w3.org/2000/svg">
<g clip-path="url(#clip0_309_2)">
<mask id="mask0_309_2" style="mask-type:luminance" maskUnits="userSpaceOnUse" x="0" y="0" width="20" height="20">
<path d="M20 0H0V20H20V0Z" fill="white"/>
</mask>
<g mask="url(#mask0_309_2)">
<path d="M17.1829 7.04134C16.3079 3.19134 12.9496 1.45801 9.99961 1.45801C9.99961 1.45801 9.99961 1.45801 9.99126 1.45801C7.04959 1.45801 3.68292 3.18301 2.80792 7.03301C1.83292 11.333 4.46626 14.9747 6.84959 17.2663C7.73292 18.1163 8.86626 18.5413 9.99961 18.5413C11.1329 18.5413 12.2662 18.1163 13.1412 17.2663C15.5246 14.9747 18.1579 11.3413 17.1829 7.04134ZM9.99961 11.2163C8.54959 11.2163 7.37459 10.0413 7.37459 8.59134C7.37459 7.14134 8.54959 5.96634 9.99961 5.96634C11.4496 5.96634 12.6246 7.14134 12.6246 8.59134C12.6246 10.0413 11.4496 11.2163 9.99961 11.2163Z" fill="#0D0C0C"/>
</g>
</g>
<defs>
<clipPath id="clip0_309_2">
<rect width="20" height="20" fill="white"/>
</clipPath>
</defs>
</svg>
